<?xml version="1.0" encoding="UTF-8"?>
<svg width="124.08mm" height="34.083mm" version="1.1" viewBox="0 0 124.08 34.083" xmlns="http://www.w3.org/2000/svg">
  <g id="logotype" fill="#331e57">
    <g id="logomark">
      <path id="moon"
        d="m74.095 4.9935c-3.1959-3.1959-7.5305-4.9913-12.05-4.9912l-0.0091 3.53e-4c-9.4079 5e-3 -17.032 7.6329-17.032 17.041 0.0012 1.7856 0.2831 3.56 0.8353 5.2582l3.0493-3.0493c-0.1232-0.7297-0.1855-1.4685-0.1863-2.2085-1e-4 -7.3624 5.9628-13.334 13.325-13.344 0.0061-2e-5 0.0122-2e-5 0.0183 0 7.3696 3e-4 13.344 5.9746 13.344 13.344-5e-4 7.369-5.9742 13.343-13.343 13.343-0.7043-1e-4 -1.4075-0.0559-2.103-0.167l-3.0596 3.0596c1.6692 0.5322 3.4105 0.8039 5.1625 0.8054 4.5196 1e-4 8.8542-1.7953 12.05-4.9912 3.1958-3.1959 4.9912-7.5304 4.9912-12.05 0-4.5196-1.7954-8.8542-4.9912-12.05z"
        stroke-width=".15005" />
      <path d="m57.092 26.579c0.5458 0.77 1.0729 1.6062 1.4468 2.495l-4.9636 4.9636h-3.9418z" stroke-width="1.4117" />
      <path d="m53.991 23.188c0.7111 0.6215 1.2999 1.2023 1.9723 1.9696l-8.879 8.8793h-2.0338l1e-4 -1.9082z"
        stroke-width="1.5542" />
      <path d="m45.048 29.572v-3.9418l5.0422-5.0422c0.9746 0.4335 2.1127 1.1931 2.4781 1.4638z" stroke-width="1.375" />
      <path id="rocket"
        d="m67.409 11.679c-7.8167-1.6079-11.922 2.485-16.719 7.2943 3.8441 1.4374 8.1225 5.7404 9.425 9.4251 4.8371-4.8315 8.9004-8.9046 7.294-16.719zm-3.9735 3.9706c0.7681 0.7683 0.7679 2.0137-3e-4 2.7818-0.7682 0.768-2.0133 0.7679-2.7815 0-0.7683-0.7681-0.7685-2.0136-4e-4 -2.7818 0.7683-0.7684 2.014-0.7684 2.7822 0z"
        stop-color="#000000" stroke-width=".032475" />
    </g>
    <g id="alt">
      <path id="a"
        d="m19.831 28.016h-3.8674l-1.9114-5.5846h-8.357l-1.8373 5.5846h-3.8525l7.9568-21.94h3.971zm-6.712-8.553-2.9487-8.7514c-0.0889-0.2856-0.1827-0.7446-0.2815-1.377h-0.0593c-0.0889 0.5814-0.1876 1.0404-0.2963 1.377l-2.919 8.7514z"
        stroke-width="1.1424" />
      <path id="l" d="m34.042 28.016h-12.149v-21.94h3.6415v18.865h8.5068z" stroke-width="1.1608" />
      <path id="t"
        d="m43.789 9.1619h-3.4844v18.85h-3.6414v-18.85h-6.2886v-3.0907h15.048c-0.868 1.3233-1.109 1.8166-1.6341 3.0907z"
        stroke-width="1.1608" />
    </g>
    <g id="viz">
      <path id="v"
        d="m98.908 6.0714-7.879 21.94h-4.07l-7.742-21.94h3.978l5.416 16.646c0.174 0.5304 0.306 1.1475 0.398 1.8513h0.061c0.072-0.5815 0.22-1.2088 0.444-1.8819l5.539-16.616z" />
      <path id="i" d="m104.63 28.011h-3.748v-21.94h3.748z" />
      <path id="z"
        d="m124.08 7.6624-12.026 17.274h11.873v3.0753h-16.968v-1.6677l12.072-17.182h-11.138v-3.0906h16.187z" />
    </g>
  </g>
</svg>